<?xml version="1.0" encoding="UTF-8"?>
<svg id="Capa_1" xmlns="http://www.w3.org/2000/svg" version="1.1" viewBox="0 0 125.33 130.81">
  <!-- Generator: Adobe Illustrator 30.1.0, SVG Export Plug-In . SVG Version: 2.1.1 Build 136)  -->
  <g>
    <path d="M77.81,99.47c-4.12-1.03-9.9-1.74-17.34-2.13-5.29-.29-9.85-.88-13.67-1.76-2.74,1.86-4.12,4.46-4.12,7.79,0,1.47.54,2.96,1.62,4.48,1.08,1.52,2.99,2.79,5.73,3.82,2.74,1.03,6.56,1.54,11.46,1.54h0c7.25.01,12.81-.68,16.68-2.05s5.81-3.19,5.81-5.44c0-3.14-2.06-5.22-6.17-6.25Z"/>
    <path d="M62,12.85c-31.89,0-57.74,25.85-57.74,57.74s25.85,57.74,57.74,57.74,57.74-25.85,57.74-57.74S93.89,12.85,62,12.85ZM94.81,111.82c-2.11,2.79-9.76,13.4-33.37,12.92-14.62.76-25.7-6.52-28.79-9.17s-4.63-6.03-4.63-10.14c0-3.23.86-6,2.57-8.3s3.8-4.14,6.25-5.51c-5-3.13-7.5-7.59-7.5-13.37,0-3.33.86-6.17,2.57-8.52s3.89-4.06,6.54-5.14c-5.78-5.29-8.67-11.95-8.67-19.99,0-5.19,1.3-9.92,3.89-14.18,2.59-4.26,6.32-7.67,11.17-10.21,4.85-2.55,10.6-3.82,17.27-3.82,4.12,0,7.86.51,11.24,1.54,3.38,1.03,6.39,2.42,9.04,4.19,3.2,2.31,6.2,4.87,8.52,8.97l-.02-.03c2.35,3.92,3.53,8.43,3.53,13.52s-1.3,9.92-3.89,14.18c-2.6,4.26-6.3,7.64-11.1,10.14-4.8,2.5-10.58,3.75-17.34,3.75s-12.79-1.37-17.78-4.11c-1.27.98-1.91,2.2-1.91,3.67s.54,2.72,1.62,3.75c1.08,1.03,3.16,1.86,6.25,2.5s7.62,1.1,13.59,1.4c4.31.2,8.5.64,12.57,1.32,4.06.69,7.72,1.79,10.95,3.31,3.23,1.52,5.81,3.65,7.72,6.39s2.87,6.32,2.87,10.73c0,4.02-1.05,7.42-3.16,10.21Z"/>
    <path d="M53.35,60.89c2.11,2.06,5.02,3.09,8.74,3.09s6.54-1.03,8.45-3.09c1.91-2.06,3.21-4.58,3.89-7.57.68-2.99,1.03-5.9,1.03-8.74s-.34-5.75-1.03-8.74c-.69-2.99-1.98-5.51-3.89-7.57-1.91-2.06-4.73-3.09-8.45-3.09s-6.64,1.03-8.74,3.09c-2.11,2.06-3.58,4.58-4.41,7.57-.83,2.99-1.25,5.9-1.25,8.74s.42,5.76,1.25,8.74c.83,2.99,2.3,5.51,4.41,7.57Z"/>
  </g>
  <circle cx="99.75" cy="13.92" r="8.7"/>
</svg>